HIERARCHY
ROOT root
{
	OFFSET	0	13.1	24.9
	CHANNELS 6  Xposition Yposition Zposition Xrotation Yrotation Zrotation
	JOINT spine_1
	{
		OFFSET	0	9.99999	0
		CHANNELS 3  Xrotation Yrotation Zrotation
		JOINT spine_2
		{
			OFFSET	0	112	-10
			CHANNELS 3  Xrotation Yrotation Zrotation
			JOINT spine_3
			{
				OFFSET	0	206.5	19.3
				CHANNELS 3  Xrotation Yrotation Zrotation
				JOINT spine_4
				{
					OFFSET	0	110.4	14.6
					CHANNELS 3  Xrotation Yrotation Zrotation
					JOINT neck_1
					{
						OFFSET	0	71.8	-50.3
						CHANNELS 3  Xrotation Yrotation Zrotation
						JOINT neck_2
						{
							OFFSET	0	86.2	-25.8
							CHANNELS 3  Xrotation Yrotation Zrotation
							JOINT head_ee
							{
								OFFSET	0	179.8	-8.7
								CHANNELS 3  Xrotation Yrotation Zrotation
								End Site
								{
									OFFSET	1	0	0
								}
							}
						}
					}
					JOINT left_clavicle
					{
						OFFSET	-43.2	22.4	-70.8
						CHANNELS 3  Xrotation Yrotation Zrotation
						JOINT left_shoulder
						{
							OFFSET	-93.9	-5.79999	48.7
							CHANNELS 3  Xrotation Yrotation Zrotation
							JOINT left_elbow
							{
								OFFSET	-291.4	-30.8	15.2
								CHANNELS 3  Xrotation Yrotation Zrotation
								JOINT left_lowarm_twist
								{
									OFFSET	-110.7	-3.89999	13.6
									CHANNELS 3  Xrotation Yrotation Zrotation
									JOINT left_hand
									{
										OFFSET	-110.7	-3.89999	13.6
										CHANNELS 3  Xrotation Yrotation Zrotation
										JOINT left_ee
										{
											OFFSET	-80.8	-5.10001	12.1
											CHANNELS 3  Xrotation Yrotation Zrotation
											End Site
											{
												OFFSET	1	0	0
											}
										}
									}
								}
							}
						}
					}
					JOINT right_clavicle
					{
						OFFSET	43.2	22.4	-70.8
						CHANNELS 3  Xrotation Yrotation Zrotation
						JOINT right_shoulder
						{
							OFFSET	93.9	-5.79999	48.7
							CHANNELS 3  Xrotation Yrotation Zrotation
							JOINT right_elbow
							{
								OFFSET	291.4	-30.8	15.2
								CHANNELS 3  Xrotation Yrotation Zrotation
								JOINT right_lowarm_twist
								{
									OFFSET	110.7	-3.89999	13.6
									CHANNELS 3  Xrotation Yrotation Zrotation
									JOINT right_hand
									{
										OFFSET	110.7	-3.89999	13.6
										CHANNELS 3  Xrotation Yrotation Zrotation
										JOINT right_ee
										{
											OFFSET	80.8	-5.10001	12.1
											CHANNELS 3  Xrotation Yrotation Zrotation
											End Site
											{
												OFFSET	1	0	0
											}
										}
									}
								}
							}
						}
					}
				}
			}
		}
	}
	JOINT left_hip
	{
		OFFSET	-82.8	-127.5	0.300001
		CHANNELS 3  Xrotation Yrotation Zrotation
		JOINT left_knee
		{
			OFFSET	-28.2	-396.7	2.2
			CHANNELS 3  Xrotation Yrotation Zrotation
			JOINT left_ankle
			{
				OFFSET	-11.7	-411.3	35.4
				CHANNELS 3  Xrotation Yrotation Zrotation
				JOINT left_toes
				{
					OFFSET	0	-60	-88.6
					CHANNELS 3  Xrotation Yrotation Zrotation
					JOINT left_foot_ee
					{
						OFFSET	-22.5	-16.5	-42.2
						CHANNELS 3  Xrotation Yrotation Zrotation
						End Site
						{
							OFFSET	1	0	0
						}
					}
				}
			}
		}
	}
	JOINT right_hip
	{
		OFFSET	82.8	-127.5	0.300001
		CHANNELS 3  Xrotation Yrotation Zrotation
		JOINT right_knee
		{
			OFFSET	28.2	-396.7	2.2
			CHANNELS 3  Xrotation Yrotation Zrotation
			JOINT right_ankle
			{
				OFFSET	11.7	-411.3	35.4
				CHANNELS 3  Xrotation Yrotation Zrotation
				JOINT right_toes
				{
					OFFSET	0	-60	-88.6
					CHANNELS 3  Xrotation Yrotation Zrotation
					JOINT right_foot_ee
					{
						OFFSET	22.5	-16.5	-42.2
						CHANNELS 3  Xrotation Yrotation Zrotation
						End Site
						{
							OFFSET	1	0	0
						}
					}
				}
			}
		}
	}
}
MOTION
Frames: 9
Frame Time: 0.02
1278.35 720.018 -1370.28 12.438 51.2969 1.76061 -2.5805 -0.737215 -4.22065 -2.57071 -0.4674 -4.25891 -2.52363 0.626102 -4.23853 -2.54869 -0.0505138 -4.28414 0.241935 20.3236 7.77954 0.986789 29.968 10.2552 -0.0 0.0 -0.0 7.49213 20.2456 13.4887 -22.3291 8.9957 64.993 0.652487 -17.9121 0.102832 11.4403 0.260495 -1.43576 3.22633 20.0625 28.6139 -0.0 0.0 -0.0 12.6065 18.7932 -25.4122 -3.20637 19.7804 -48.8215 1.05397 27.5687 -0.258583 34.809 0.107144 4.37769 2.83288 20.1387 -10.2408 0.0 0.0 0.0 23.772 4.20584 -20.761 -3.50296 0.128295 0.522204 -19.3737 20.5591 2.97527 34.8719 -0.0 -0.0 -0.0 0.0 -0.0 -14.7083 9.92244 -10.5936 -20.4882 -0.289515 -3.11402 24.3616 18.0885 3.58565 22.9958 -0.0 -0.0 0.0 0.0 0.0 
1258.12 721.174 -1372.9 13.3654 50.6593 1.53035 -2.6937 -0.617038 -4.2906 -2.68353 -0.343026 -4.32109 -2.64506 0.7716 -4.26556 -2.67043 0.0889109 -4.33375 0.841527 20.4812 7.49096 1.6416 30.282 9.84995 -0.0 0.0 -0.0 7.75703 19.2911 13.9949 -21.2169 8.71067 65.1835 0.64062 -17.6067 0.0992124 11.5471 0.261568 -1.44936 3.24508 20.4972 28.8456 -0.0 0.0 -0.0 12.5814 18.6101 -25.3651 -3.50245 19.476 -49.0213 0.879821 23.5491 -0.1834 34.2933 0.0861742 4.31519 2.7329 19.025 -10.1139 0.0 0.0 0.0 22.1274 4.70353 -21.3697 -3.82842 0.138587 0.571092 -22.2065 18.1519 3.38627 33.9793 -0.0 -0.0 -0.0 0.0 -0.0 -14.8621 10.7831 -10.373 -21.8873 -0.268442 -3.32767 23.5162 18.3669 3.48633 23.0532 -0.0 -0.0 0.0 0.0 0.0 
1238.05 728.577 -1373.5 13.0697 49.8152 2.62744 -2.92698 -0.604748 -4.48017 -2.91587 -0.318734 -4.50949 -2.87653 0.861376 -4.43806 -2.90397 0.150404 -4.51822 0.854801 19.8628 7.08964 1.6057 29.4969 9.37626 -0.0 0.0 -0.0 8.3683 18.213 15.083 -19.7257 7.60771 65.2967 0.64617 -17.7496 0.100898 12.1895 0.267484 -1.5312 3.37237 21.1072 29.8695 -0.0 0.0 -0.0 12.4056 17.7475 -25.0083 -4.47939 19.5855 -49.3156 0.825103 22.2312 -0.162115 33.1663 0.0423145 4.17798 2.66828 18.6583 -9.85649 0.0 0.0 0.0 21.4171 4.61529 -22.2104 -4.03355 0.144931 0.601934 -23.6482 16.9887 3.59512 34.7824 -0.0 -0.0 -0.0 0.0 -0.0 -13.869 10.869 -11.0881 -22.6509 -0.254741 -3.44404 22.0063 15.362 3.21588 22.8096 -0.0 -0.0 0.0 0.0 0.0 
1218.29 734.877 -1372.24 13.1862 48.9409 3.09619 -3.14664 -0.581537 -4.62211 -3.13481 -0.286567 -4.64967 -3.09589 0.946512 -4.56151 -3.12485 0.215045 -4.65351 0.968338 20.2372 7.27874 1.75691 29.9747 9.58418 -0.0 0.0 -0.0 8.445 17.2363 15.3171 -17.9902 7.48101 65.5238 0.663324 -18.1902 0.10619 11.8029 0.264033 -1.48194 3.29485 20.9007 29.2833 -0.0 0.0 -0.0 12.3398 17.8631 -24.8503 -5.40025 18.7794 -49.1732 0.704693 19.2433 -0.119465 33.2686 0.046184 4.19047 2.60049 18.0319 -9.70048 0.0 0.0 0.0 20.3577 5.30745 -22.3709 -4.26104 0.151838 0.636163 -24.162 15.9424 3.66402 33.0834 -0.0 -0.0 -0.0 0.0 -0.0 -13.421 11.3328 -11.5055 -23.2082 -0.243763 -3.52885 22.6763 18.5585 3.38347 23.1312 -0.0 -0.0 0.0 0.0 0.0 
1193.21 737.415 -1380.03 16.0964 49.6846 1.17766 -3.45841 -1.01802 -4.72416 -3.44628 -0.715697 -4.77919 -3.36741 0.58803 -4.79653 -3.39946 -0.175958 -4.82916 1.27801 20.1157 7.9022 2.05588 29.1228 10.2106 -0.0 0.0 -0.0 8.61109 15.5104 15.7814 -17.4595 7.62389 65.7237 0.673447 -18.4491 0.109372 11.9862 0.26571 -1.50529 3.31035 20.9039 29.3919 -0.0 0.0 -0.0 12.1935 17.1568 -24.5506 -7.37166 17.5928 -48.9378 0.625257 17.2096 -0.0946158 33.1038 0.0399612 4.17035 2.53763 17.5887 -9.48759 0.0 0.0 0.0 16.8965 6.60415 -21.7376 -4.931 0.171386 0.737123 -17.5489 17.2632 2.6648 34.8242 -0.0 -0.0 -0.0 0.0 -0.0 -12.676 11.9058 -12.2626 -27.9948 -0.115633 -4.25203 22.723 18.2713 3.38156 23.5345 -0.0 -0.0 0.0 0.0 0.0 
1167.82 742.465 -1385.76 13.3805 49.8912 4.375 -2.6426 -1.15354 -4.80205 -2.63018 -0.846008 -4.86551 -2.54103 0.414033 -4.921 -2.57462 -0.367373 -4.92469 3.69896 18.3896 9.22226 4.36065 24.0408 11.3515 -0.0 0.0 -0.0 8.95957 8.3856 17.0626 -9.20435 7.27679 62.8637 0.654848 -17.9728 0.103559 13.6534 0.277535 -1.7179 2.58204 21.5639 24.6272 -0.0 0.0 -0.0 12.031 16.4643 -24.2104 -10.4052 15.9355 -50.7383 0.571434 15.8055 -0.0793214 31.7208 -0.00996898 4.0008 2.67209 16.6101 -10.8621 0.0 0.0 0.0 13.3502 8.42442 -21.663 4.22507 -0.196903 -0.618204 -17.4169 17.8473 2.64874 31.0903 -0.0 -0.0 -0.0 0.0 -0.0 -8.48415 13.2155 -14.4522 -30.5612 -0.022164 -4.63477 22.2188 14.9066 3.23273 23.8255 -0.0 -0.0 0.0 0.0 0.0 
1150.55 746.406 -1391.56 14.9975 50.4377 2.98643 -3.27835 -1.24408 -4.55508 -3.26732 -0.952022 -4.62481 -3.17227 0.302061 -4.71192 -3.20297 -0.445047 -4.7006 4.66223 17.4922 8.71465 5.2666 22.5781 10.6937 -0.0 0.0 -0.0 9.10603 4.86891 17.588 -4.42662 7.37984 61.5335 0.591538 -16.3323 0.0848862 14.1441 0.279837 -1.78054 2.45966 22.1339 23.9702 -0.0 0.0 -0.0 11.8742 16.0022 -23.8719 -11.2898 15.2599 -51.4284 0.556378 15.4091 -0.0752706 32.2256 0.00777884 4.06282 2.53525 16.6432 -9.91866 0.0 0.0 0.0 11.3051 10.2188 -21.3019 6.64638 -0.330167 -0.965551 -20.8986 18.1045 3.18546 27.3083 -0.0 -0.0 -0.0 0.0 -0.0 -7.32126 11.3802 -15.7444 -33.3206 0.0973771 -5.04129 23.9615 13.6093 3.4224 24.0917 -0.0 -0.0 0.0 0.0 0.0 
1134.78 747.456 -1392.51 16.5771 50.0542 0.512242 -3.26766 -0.866604 -4.514 -3.25651 -0.577916 -4.55987 -3.19401 0.648647 -4.55036 -3.22288 -0.0773511 -4.59562 3.63418 14.4035 11.914 4.06884 14.6851 14.2345 -0.0 0.0 -0.0 9.21959 2.37906 17.951 -1.81951 6.68944 60.9031 0.566249 -15.6691 0.0779151 13.4804 0.276597 -1.69584 2.0272 18.8965 20.284 -0.0 0.0 -0.0 11.9344 17.3184 -23.9479 -15.7552 16.1585 -51.0576 0.464064 12.9466 -0.0526548 28.849 -0.100492 3.64519 2.74678 17.376 -11.0033 0.0 0.0 0.0 8.528 9.37248 -19.608 4.91388 -0.233314 -0.717574 -12.3319 12.596 1.84797 29.9694 -0.0 -0.0 -0.0 0.0 -0.0 -3.81671 21.5791 -18.5271 -37.4188 0.310774 -5.63353 24.1952 4.07718 3.29511 25.0379 -0.0 -0.0 0.0 0.0 0.0 
1120.56 749.743 -1397.08 16.7896 49.4593 0.699764 -3.31272 -0.541295 -4.38626 -3.30206 -0.261366 -4.41175 -3.26741 0.921084 -4.32261 -3.29341 0.227546 -4.41362 3.06842 15.1443 11.3193 3.52201 16.7009 13.5989 -0.0 0.0 -0.0 9.13219 0.861875 17.8431 0.297753 6.02269 60.1448 0.587033 -16.2145 0.0836237 13.8745 0.278639 -1.74613 2.02068 20.2403 20.63 -0.0 0.0 -0.0 11.7974 15.3661 -23.7219 -14.0576 13.6887 -52.2837 0.422518 11.8217 -0.0437441 31.2725 -0.0252744 3.94559 2.51199 15.749 -10.1806 0.0 0.0 0.0 7.66402 10.7497 -19.9822 4.98356 -0.237064 -0.727603 -11.6449 14.7057 1.74924 25.1589 -0.0 -0.0 -0.0 0.0 -0.0 -2.66806 20.1817 -18.0311 -39.4801 0.43402 -5.92537 24.007 7.90734 3.32246 25.5785 -0.0 -0.0 0.0 0.0 0.0 
